# xmcd
#
# Track frame offsets:
#  150
#  14597
#  32872
#  50262
#  80842
#  94242
#  114945
#  133105
#  148712
#  168970
#  188087
#  203730
#  219820
#  238305
#  254067
#  273212
#
# Disc length: 4013 seconds
#
# Revision: 0
# Processed by: cddbd v1.5.1PL2 Copyright (c) Steve Scherf et al.
# Submitted via: Collectorz.com_Music_Collector 6.9
#
DISCID=e80fab10
DTITLE=Skeleton Krew - Complete Works
DYEAR=1992
DGENRE=King and Earl
TTITLE0=Hey Gyp
TTITLE1=My Babe
TTITLE2=Voodoo
TTITLE3=Creepin Like Jesus
TTITLE4=Breakfast A Tea Time
TTITLE5=Don't Think Twice It's Alright
TTITLE6=Gypsey Davey
TTITLE7=Russian Roulette
TTITLE8=She Belongs To Me
TTITLE9=Houdini
TTITLE10=Live For Today
TTITLE11=Song For Frank
TTITLE12=Knockin' On Heavens Door
TTITLE13='38 Plug
TTITLE14=Boogie Woogie
TTITLE15=Good Lookin'
EXTD=
EXTT0=
EXTT1=
EXTT2=
EXTT3=
EXTT4=
EXTT5=
EXTT6=
EXTT7=
EXTT8=
EXTT9=
EXTT10=
EXTT11=
EXTT12=
EXTT13=
EXTT14=
EXTT15=
PLAYORDER=
